<svg width="279" height="55" viewBox="0 0 279 55" xmlns="http://www.w3.org/2000/svg" xmlns:xlink="http://www.w3.org/1999/xlink"><title>Group 38</title><defs><path id="a" d="M.204.594h18.781V18.36H.205z"/></defs><g fill="none" fill-rule="evenodd"><path d="M55.163 18.354l-.001.001v.002l-.206.12c-2.881-4.992-7.72-8.855-12.878-10.238-5.16-1.383-11.752-.585-16.743 2.297l-.12-.205L42.71.231a1.723 1.723 0 0 1 2.353.631l10.1 17.492z" fill="#2B3990"/><path d="M35.035 1.385v.239c-5.763-.01-11.531 2.234-15.315 6.003-3.787 3.77-6.405 9.873-6.417 15.634h-.236l.043-20.199a1.722 1.722 0 0 1 1.726-1.719l20.199.042z" fill="#E79B24"/><path d="M10.408 9.047l.208.12c-2.903 4.979-3.857 11.095-2.495 16.26 1.359 5.168 5.326 10.492 10.303 13.395l-.12.204L.854 28.853a1.725 1.725 0 0 1-.62-2.357L10.409 9.049z" fill="#2B3990"/><path d="M5.804 36.09l.001-.002v-.002l.206-.117c2.851 5.008 7.662 8.904 12.813 10.32 5.151 1.413 11.75.657 16.758-2.19l.117.205-17.558 9.987a1.724 1.724 0 0 1-2.349-.644L5.804 36.09z" fill="#E79B24"/><path d="M24.634 54.399v-.001h-.002l.002-.238c5.762.048 11.545-2.16 15.353-5.905 3.811-3.745 6.468-9.831 6.517-15.594l.236.003-.172 20.198a1.72 1.72 0 0 1-1.736 1.708l-20.198-.171z" fill="#2B3990"/><path d="M50.522 45.735v.001l-.207-.121c2.934-4.96 3.926-11.071 2.6-16.245-1.33-5.176-5.259-10.528-10.218-13.461l.12-.204 17.384 10.287a1.723 1.723 0 0 1 .606 2.359L50.522 45.735z" fill="#E79B24"/><path d="M101.54 49.539h-.552l-3.314-4.851v4.85h-.552v-5.521h.747l3.119 4.582v-4.582h.553v5.522zm8.737 0h-.597l-.798-1.852h-2.568l-.797 1.852h-.598l2.38-5.522h.61l2.368 5.522zm-1.611-2.352l-1.061-2.53-1.075 2.53h2.136zm6.87-2.671h-1.261v5.023h-.552v-5.023h-1.262v-.5h3.075v.5zm3.363 5.023h.552v-5.522h-.552v5.522zm10.028-2.791c0 .825-.28 1.514-.84 2.063-.56.55-1.254.826-2.085.826-.825 0-1.521-.27-2.082-.807-.563-.536-.845-1.217-.845-2.037 0-.826.28-1.511.84-2.056.56-.546 1.256-.818 2.087-.818.83 0 1.526.266 2.086.802.559.535.839 1.21.839 2.027zm-.552 0c0-.683-.226-1.24-.676-1.676-.45-.436-1.012-.652-1.69-.652-.678 0-1.241.224-1.697.675-.457.45-.682 1.016-.682 1.698 0 .686.224 1.249.678 1.685.452.44 1.019.659 1.702.659.677 0 1.24-.226 1.689-.676.45-.451.676-1.022.676-1.713zm8.588 2.79h-.554l-3.312-4.85v4.85h-.552v-5.521h.746l3.118 4.582v-4.582h.554v5.522zm8.736 0h-.596l-.8-1.851h-2.567l-.8 1.852h-.596l2.382-5.522h.612l2.365 5.522zm-1.611-2.351l-1.061-2.53-1.074 2.53h2.135zm7.824 2.352h-2.836v-5.522h.554v5.022h2.282v.5zm11.724 0h-.598l-.798-1.852h-2.567l-.8 1.852h-.598l2.382-5.522h.613l2.366 5.522zm-1.613-2.352l-1.06-2.53-1.073 2.53h2.133zm6.872-2.671h-1.262v5.023h-.552v-5.023h-1.262v-.5h3.076v.5zm8.347 2.232c0 .825-.28 1.514-.84 2.063-.557.55-1.255.826-2.086.826-.826 0-1.52-.27-2.081-.807-.561-.536-.843-1.217-.843-2.037 0-.826.28-1.511.838-2.056.562-.546 1.256-.818 2.086-.818.83 0 1.529.266 2.087.802.56.535.839 1.21.839 2.027zm-.552 0c0-.683-.224-1.24-.674-1.676-.451-.436-1.014-.652-1.692-.652-.677 0-1.241.224-1.696.675-.456.45-.685 1.016-.685 1.698 0 .686.227 1.249.679 1.685.453.44 1.022.659 1.702.659.678 0 1.24-.226 1.692-.676.45-.451.674-1.022.674-1.713zm9.932 2.79h-.554v-4.902l-2.095 4.903h-.463l-2.1-4.903v4.903h-.551v-5.522h.852l2.029 4.7 2.03-4.7h.852v5.522zm3.854 0h.552v-5.521h-.552v5.522zm9.61-1.44a2.9 2.9 0 0 1-1.048 1.13 2.74 2.74 0 0 1-1.474.409c-.821 0-1.507-.266-2.06-.8-.566-.546-.851-1.238-.851-2.075 0-.815.276-1.494.826-2.035.548-.54 1.23-.808 2.04-.808.573 0 1.082.133 1.527.395a2.58 2.58 0 0 1 1.018 1.112h-.657a2.188 2.188 0 0 0-.545-.59c-.378-.277-.824-.416-1.336-.416-.68 0-1.238.225-1.671.682-.433.456-.65 1.009-.65 1.66 0 .672.229 1.236.685 1.69.455.457 1.012.685 1.674.685a2.17 2.17 0 0 0 1.015-.248c.353-.178.638-.441.852-.791h.656zm12.29 0a2.9 2.9 0 0 1-1.05 1.13 2.737 2.737 0 0 1-1.472.409c-.822 0-1.507-.266-2.06-.8-.566-.546-.852-1.238-.852-2.075 0-.815.276-1.494.826-2.035.548-.54 1.229-.808 2.04-.808.573 0 1.082.133 1.527.395.445.264.784.635 1.019 1.112h-.658a2.188 2.188 0 0 0-.545-.59c-.378-.277-.822-.416-1.336-.416-.68 0-1.238.225-1.67.682a2.323 2.323 0 0 0-.651 1.66c0 .672.229 1.236.685 1.69.455.457 1.012.685 1.675.685.358 0 .697-.083 1.014-.248.354-.178.638-.441.852-.791h.656zm9.229-1.35c0 .825-.281 1.514-.84 2.063-.56.55-1.254.826-2.085.826-.826 0-1.521-.27-2.082-.807-.564-.536-.843-1.217-.843-2.037 0-.826.279-1.511.839-2.056.56-.546 1.255-.818 2.086-.818.83 0 1.526.266 2.086.802.558.535.839 1.21.839 2.027zm-.551 0c0-.683-.226-1.24-.675-1.676-.45-.436-1.016-.652-1.692-.652-.676 0-1.243.224-1.698.675-.455.45-.682 1.016-.682 1.698 0 .686.225 1.249.678 1.685.453.44 1.022.659 1.702.659.676 0 1.242-.226 1.692-.676.449-.451.675-1.022.675-1.713zm9.928 2.79h-.55v-4.902l-2.097 4.903h-.463l-2.098-4.903v4.903h-.551v-5.522h.85l2.03 4.7 2.03-4.7h.849v5.522zm7.493-3.864c0 .46-.142.84-.426 1.133-.333.344-.825.516-1.48.516h-1.191v2.216h-.554v-5.522h1.746c.723 0 1.242.196 1.562.587.227.28.343.637.343 1.07zm-.552 0c0-.33-.1-.596-.3-.8-.232-.238-.581-.358-1.044-.358h-1.201v2.307h1.2c.458 0 .804-.12 1.038-.358.204-.205.307-.468.307-.791zm8.132 3.865h-.597l-.8-1.852h-2.567l-.798 1.852h-.6l2.383-5.522h.612l2.367 5.522zm-1.613-2.352l-1.06-2.53-1.075 2.53h2.135zm9.409 2.352h-.552l-3.315-4.851v4.85h-.552v-5.521h.747l3.12 4.582v-4.582h.552v5.522zm7.669-5.522l-1.888 3.67v1.852h-.553v-1.852l-1.888-3.67h.605l1.559 3.096 1.56-3.096h.605zM102.606 29.985l2.005-5.05 1.978 5.05h-3.983zm-.33-10.889L94.712 36.99h5.177l1.271-3.171h6.851l1.294 3.17h5.28l-7.562-17.892h-4.747zm-6.776.068h-5.837L83.57 26.43v-7.266h-5.075V36.93h5.075v-4.533l1.79-2.035 4.455 6.568h3.342l.98-2.289-5.363-7.822zm42.965 10.821l2.005-5.05 1.98 5.05h-3.984zm-.33-10.889l-7.563 17.893h5.178l1.27-3.171h6.851l1.294 3.17h5.28l-7.563-17.892h-4.746zm-7.287 13.773h-8.803l8.73-10.067v-3.637h-15.229v4.568h8.606L114.9 33.82l1.311 3.11h13.041l1.715-4.061zm16.526-9.331h5.33v13.45h4.924v-13.45h5.329v-4.314h-15.583zm25.455 9.365c-2.69 0-4.543-2.233-4.543-4.796 0-2.615 1.802-4.797 4.492-4.797 2.716 0 4.569 2.232 4.569 4.797 0 2.614-1.802 4.796-4.518 4.796m0-14.036c-5.483 0-9.594 4.137-9.594 9.24 0 5.15 4.06 9.237 9.543 9.237 5.48 0 9.594-4.137 9.594-9.237 0-5.152-4.063-9.24-9.543-9.24m39.87 9.189h-2.335V23.36h2.309c1.777 0 2.84.812 2.84 2.335 0 1.447-1.063 2.36-2.814 2.36m.354-8.832h-7.614v17.766h4.925v-5.076h2.437c4.416 0 7.637-2.207 7.637-6.396 0-3.984-2.892-6.294-7.385-6.294m17.131 8.528h-3.248v-4.264h3.223c1.65 0 2.665.712 2.665 2.107 0 1.345-.966 2.157-2.64 2.157m7.59-2.41c0-1.803-.535-3.173-1.575-4.214-1.194-1.193-3.072-1.903-5.787-1.903h-8.4V36.99h4.924v-5.38h2.156l3.578 5.38h5.686l-4.239-6.192c2.21-.94 3.656-2.742 3.656-5.456m10.963 7.561c-2.691 0-4.544-2.233-4.544-4.796 0-2.615 1.802-4.797 4.492-4.797 2.717 0 4.57 2.232 4.57 4.797 0 2.614-1.802 4.796-4.518 4.796m0-14.036c-5.482 0-9.595 4.137-9.595 9.24 0 5.15 4.061 9.237 9.543 9.237 5.482 0 9.595-4.137 9.595-9.237 0-5.152-4.063-9.24-9.543-9.24m-55.376 7.175l-4.239-6.878h-5.05V36.93h4.565V26.837l3.852 6.031h1.64l3.645-6.082V36.93h5.076V19.164h-5.25z" fill="#2B3990"/><g transform="translate(260 18.57)"><mask id="b" fill="#fff"><use xlink:href="#a"/></mask><path fill="#2B3990" mask="url(#b)" d="M14.012.594L9.773 7.472 5.534.594H.204V18.36h5.077V8.27l3.62 6.03h1.641l3.875-6.082V18.36h4.568V.594z"/></g></g></svg>